<svg width="23" height="22" viewBox="0 0 23 22" fill="none" xmlns="http://www.w3.org/2000/svg">
<path d="M22.7103 6.49621C22.6591 5.33451 22.4713 4.53585 22.2021 3.8438C21.9245 3.10921 21.4974 2.45153 20.9378 1.9048C20.3911 1.34956 19.7291 0.918115 19.003 0.644832C18.307 0.375721 17.5125 0.187861 16.3508 0.136641C15.1804 0.0810839 14.8088 0.0682373 11.8404 0.0682373C8.87205 0.0682373 8.5005 0.0810839 7.33446 0.132303C6.17276 0.183523 5.37411 0.37155 4.68222 0.640495C3.94747 0.918115 3.28979 1.34522 2.74306 1.9048C2.18782 2.45153 1.75654 3.11355 1.48309 3.83963C1.21398 4.53585 1.02612 5.33017 0.974898 6.49187C0.919341 7.66224 0.906494 8.03379 0.906494 11.0022C0.906494 13.9706 0.919341 14.3421 0.97056 15.5082C1.02178 16.6699 1.20981 17.4685 1.47892 18.1606C1.75654 18.8952 2.18782 19.5528 2.74306 20.0996C3.28979 20.6548 3.9518 21.0863 4.67789 21.3595C5.37411 21.6287 6.16843 21.8165 7.33029 21.8677C8.49616 21.9191 8.86788 21.9318 11.8363 21.9318C14.8047 21.9318 15.1762 21.9191 16.3423 21.8677C17.504 21.8165 18.3026 21.6287 18.9945 21.3595C20.4638 20.7915 21.6255 19.6298 22.1936 18.1606C22.4626 17.4644 22.6506 16.6699 22.7018 15.5082C22.753 14.3421 22.7659 13.9706 22.7659 11.0022C22.7659 8.03379 22.7616 7.66224 22.7103 6.49621ZM20.7415 15.4228C20.6944 16.4905 20.5151 17.0671 20.3656 17.4515C19.9982 18.404 19.2423 19.1599 18.2898 19.5273C17.9054 19.6768 17.3246 19.8562 16.261 19.903C15.1078 19.9544 14.762 19.9671 11.8448 19.9671C8.92761 19.9671 8.57741 19.9544 7.42839 19.903C6.36062 19.8562 5.78403 19.6768 5.39963 19.5273C4.92564 19.3521 4.4942 19.0745 4.144 18.7115C3.78096 18.3569 3.50334 17.9298 3.32816 17.4559C3.17867 17.0715 2.99932 16.4905 2.95244 15.4271C2.90105 14.2739 2.88837 13.9279 2.88837 11.0107C2.88837 8.09352 2.90105 7.74333 2.95244 6.59447C2.99932 5.5267 3.17867 4.95011 3.32816 4.56571C3.50334 4.09156 3.78096 3.66028 4.14834 3.30992C4.50271 2.94688 4.92981 2.66926 5.40397 2.49424C5.78837 2.34475 6.3693 2.1654 7.43273 2.11835C8.58592 2.06713 8.93194 2.05429 11.849 2.05429C14.7705 2.05429 15.1163 2.06713 16.2653 2.11835C17.3331 2.1654 17.9097 2.34475 18.2941 2.49424C18.7681 2.66926 19.1995 2.94688 19.5497 3.30992C19.9128 3.66445 20.1904 4.09156 20.3656 4.56571C20.5151 4.95011 20.6944 5.53088 20.7415 6.59447C20.7927 7.74766 20.8055 8.09352 20.8055 11.0107C20.8055 13.9279 20.7927 14.2696 20.7415 15.4228Z" fill="white"/>
<path d="M11.8405 5.38574C8.73982 5.38574 6.22406 7.90134 6.22406 11.0022C6.22406 14.1031 8.73982 16.6187 11.8405 16.6187C14.9414 16.6187 17.457 14.1031 17.457 11.0022C17.457 7.90134 14.9414 5.38574 11.8405 5.38574ZM11.8405 14.6455C9.82895 14.6455 8.19726 13.0139 8.19726 11.0022C8.19726 8.99046 9.82895 7.35895 11.8405 7.35895C13.8523 7.35895 15.4838 8.99046 15.4838 11.0022C15.4838 13.0139 13.8523 14.6455 11.8405 14.6455Z" fill="white"/>
<path d="M18.9904 5.16373C18.9904 5.88781 18.4033 6.47491 17.679 6.47491C16.955 6.47491 16.3679 5.88781 16.3679 5.16373C16.3679 4.43948 16.955 3.85254 17.679 3.85254C18.4033 3.85254 18.9904 4.43948 18.9904 5.16373Z" fill="white"/>
</svg>
