<svg width="22" height="22" viewBox="0 0 22 22" fill="none" xmlns="http://www.w3.org/2000/svg">
<path d="M21.9011 21.9532V21.9523H21.9065V13.9181C21.9065 9.98773 21.0604 6.96008 16.4655 6.96008C14.2566 6.96008 12.7743 8.17224 12.1691 9.32141H12.1052V7.32702H7.7486V21.9523H12.2851V14.7104C12.2851 12.8036 12.6465 10.9598 15.0078 10.9598C17.3345 10.9598 17.3692 13.1359 17.3692 14.8327V21.9532H21.9011Z" fill="white"/>
<path d="M0.361511 7.32794H4.90344V21.9532H0.361511V7.32794Z" fill="white"/>
<path d="M2.6306 0.046814C1.17838 0.046814 0 1.2252 0 2.67741C0 4.12962 1.17838 5.33265 2.6306 5.33265C4.08281 5.33265 5.26119 4.12962 5.26119 2.67741C5.26028 1.2252 4.0819 0.046814 2.6306 0.046814V0.046814Z" fill="white"/>
</svg>
